<svg width="106" height="45" viewBox="0 0 106 45" fill="none" xmlns="http://www.w3.org/2000/svg">
<rect width="106" height="45" fill="#E5E5E5"/>
<g clip-path="url(#clip0_0_1)">
<rect width="1440" height="6933" transform="translate(-135 -6759)" fill="white"/>
<path d="M4.70422 28.4836V15.0275H0V11.9545H12.9131V15.0275H8.20885V28.4836H4.70422Z" fill="#3685FB"/>
<path d="M13.8591 28.4836V16.1915H16.8933L17.0109 18.054C17.3245 17.4021 17.7479 16.9055 18.281 16.564C18.8142 16.2071 19.4414 16.0286 20.1627 16.0286C20.3822 16.0286 20.6018 16.0519 20.8213 16.0984C21.0408 16.1295 21.2368 16.176 21.4093 16.2381L21.0565 19.4508C20.884 19.3887 20.7037 19.3499 20.5155 19.3344C20.343 19.3034 20.1627 19.2878 19.9745 19.2878C19.0651 19.2878 18.3673 19.5672 17.8812 20.1259C17.3951 20.6691 17.152 21.4452 17.152 22.454V28.4836H13.8591Z" fill="#3685FB"/>
<path d="M26.7359 12.8624C26.7359 13.2194 26.6497 13.5376 26.4772 13.8169C26.3204 14.0963 26.093 14.3213 25.7951 14.4921C25.5128 14.6473 25.1992 14.7249 24.8542 14.7249C24.5093 14.7249 24.1878 14.6473 23.8899 14.4921C23.6076 14.3213 23.3803 14.0963 23.2078 13.8169C23.051 13.5376 22.9726 13.2194 22.9726 12.8624C22.9726 12.5055 23.051 12.1873 23.2078 11.9079C23.3803 11.6286 23.6076 11.4113 23.8899 11.2561C24.1878 11.0854 24.5093 11 24.8542 11C25.1992 11 25.5128 11.0854 25.7951 11.2561C26.093 11.4113 26.3204 11.6286 26.4772 11.9079C26.6497 12.1873 26.7359 12.5055 26.7359 12.8624ZM23.2078 28.4836V16.1915H26.5007V28.4836H23.2078Z" fill="#3685FB"/>
<path d="M29.134 33V16.1915H32.1682L32.2623 17.9841C32.6857 17.3168 33.2502 16.7968 33.9558 16.4243C34.6614 16.0363 35.4376 15.8423 36.2844 15.8423C37.0998 15.8423 37.8525 16.0053 38.5424 16.3312C39.2324 16.6571 39.8361 17.115 40.3535 17.7048C40.871 18.279 41.2708 18.9541 41.5531 19.7302C41.851 20.5062 42 21.352 42 22.2677C42 23.1989 41.851 24.0603 41.5531 24.8519C41.2552 25.6434 40.8396 26.3418 40.3065 26.9471C39.7733 27.5369 39.1461 28.0025 38.4248 28.3439C37.7035 28.6698 36.9273 28.8328 36.0962 28.8328C35.3279 28.8328 34.6301 28.6854 34.0028 28.3905C33.3756 28.0801 32.8503 27.6533 32.4269 27.1101V33H29.134ZM35.5082 25.8995C36.104 25.8995 36.6372 25.7443 37.1076 25.4339C37.578 25.1235 37.9465 24.7044 38.2131 24.1767C38.4954 23.6335 38.6365 23.0205 38.6365 22.3376C38.6365 21.6547 38.4954 21.0494 38.2131 20.5217C37.9465 19.9785 37.578 19.5517 37.1076 19.2413C36.6372 18.9309 36.104 18.7757 35.5082 18.7757C34.9123 18.7757 34.3792 18.9309 33.9088 19.2413C33.4383 19.5517 33.062 19.9785 32.7797 20.5217C32.5132 21.0494 32.3799 21.6547 32.3799 22.3376C32.3799 23.0205 32.5132 23.6335 32.7797 24.1767C33.062 24.7044 33.4383 25.1235 33.9088 25.4339C34.3792 25.7443 34.9123 25.8995 35.5082 25.8995Z" fill="#3685FB"/>
<path d="M51.5618 29C50.5793 29 49.6514 28.859 48.778 28.577C47.9203 28.295 47.1328 27.8956 46.4154 27.3786C45.7136 26.846 45.1054 26.2193 44.5907 25.4987C44.0917 24.7781 43.7018 23.9791 43.4211 23.1018C43.1404 22.2089 43 21.2533 43 20.235C43 19.2167 43.1404 18.2611 43.4211 17.3681C43.7018 16.4752 44.0995 15.6606 44.6141 14.9243C45.1288 14.188 45.7448 13.5614 46.4621 13.0444C47.1795 12.5117 47.9671 12.1044 48.8248 11.8225C49.6982 11.5248 50.6261 11.376 51.6086 11.376C52.7159 11.376 53.7452 11.5561 54.6965 11.9164C55.6478 12.2768 56.4821 12.7937 57.1995 13.4674C57.9325 14.141 58.5017 14.9556 58.9072 15.9112L55.5386 16.9452C55.1175 16.1932 54.5717 15.6136 53.9011 15.2063C53.2461 14.799 52.4819 14.5953 51.6086 14.5953C50.8912 14.5953 50.2284 14.7363 49.6202 15.0183C49.012 15.2846 48.4817 15.6762 48.0295 16.1932C47.5772 16.6945 47.2263 17.282 46.9768 17.9556C46.7273 18.6292 46.6025 19.3655 46.6025 20.1645C46.6025 20.9791 46.7273 21.7311 46.9768 22.4204C47.2263 23.1097 47.5772 23.705 48.0295 24.2063C48.4973 24.7076 49.0432 25.0992 49.667 25.3812C50.2908 25.6475 50.977 25.7807 51.7256 25.7807C52.5209 25.7807 53.2305 25.6319 53.8543 25.3342C54.4781 25.0366 54.985 24.6214 55.3749 24.0888C55.7647 23.5561 56.0065 22.9295 56.1 22.2089H51.9595V19.3185H59.6792V21.0809C59.6792 22.2402 59.4764 23.3055 59.0709 24.2768C58.6811 25.248 58.1274 26.0862 57.41 26.7911C56.6927 27.4961 55.8349 28.0444 54.8368 28.436C53.8387 28.812 52.7471 29 51.5618 29Z" fill="#002248"/>
<path d="M67.9791 28.8825C67.059 28.8825 66.209 28.718 65.4292 28.389C64.6495 28.0601 63.9711 27.6057 63.3941 27.0261C62.817 26.4308 62.3648 25.7337 62.0373 24.9347C61.7254 24.1358 61.5694 23.2663 61.5694 22.3264C61.5694 21.3864 61.7332 20.5248 62.0607 19.7415C62.3882 18.9426 62.8404 18.2454 63.4174 17.6501C64.0101 17.0548 64.6963 16.5927 65.476 16.2637C66.2714 15.9347 67.1369 15.7702 68.0726 15.7702C68.9928 15.7702 69.8427 15.9347 70.6225 16.2637C71.4022 16.5927 72.0806 17.0548 72.6577 17.6501C73.2347 18.2298 73.6791 18.9191 73.9911 19.718C74.3186 20.5013 74.4823 21.3629 74.4823 22.3029C74.4823 23.2428 74.3186 24.1123 73.9911 24.9112C73.6635 25.7102 73.2035 26.4073 72.6109 27.0026C72.0338 27.5979 71.3476 28.0601 70.5523 28.389C69.7725 28.718 68.9148 28.8825 67.9791 28.8825ZM68.0259 25.9217C68.6185 25.9217 69.1487 25.765 69.6166 25.4517C70.0844 25.1384 70.4509 24.7154 70.716 24.1828C70.9968 23.6345 71.1371 23.0157 71.1371 22.3264C71.1371 21.6371 70.9968 21.0261 70.716 20.4935C70.4509 19.9452 70.0844 19.5144 69.6166 19.201C69.1487 18.8877 68.6185 18.7311 68.0259 18.7311C67.4332 18.7311 66.903 18.8877 66.4351 19.201C65.9673 19.5144 65.593 19.9452 65.3123 20.4935C65.0472 21.0261 64.9146 21.6371 64.9146 22.3264C64.9146 23.0157 65.0472 23.6345 65.3123 24.1828C65.593 24.7154 65.9673 25.1384 66.4351 25.4517C66.903 25.765 67.4332 25.9217 68.0259 25.9217Z" fill="#002248"/>
<path d="M80.448 28.8825C79.8086 28.8825 79.2238 28.7885 78.6936 28.6005C78.1633 28.4125 77.6955 28.1462 77.29 27.8016C76.9001 27.4413 76.596 27.0261 76.3777 26.5561C76.1593 26.0862 76.0502 25.5692 76.0502 25.0052C76.0502 24.2219 76.2607 23.5326 76.6818 22.9373C77.1029 22.342 77.6955 21.8799 78.4596 21.5509C79.2238 21.2063 80.1127 21.0339 81.1264 21.0339C81.6411 21.0339 82.1245 21.0809 82.5768 21.1749C83.0447 21.2689 83.4969 21.4021 83.9336 21.5744V20.846C83.9336 20.141 83.7309 19.5692 83.3254 19.1305C82.9355 18.6919 82.3975 18.4726 81.7113 18.4726C81.1966 18.4726 80.7288 18.6057 80.3077 18.8721C79.8866 19.1227 79.5903 19.483 79.4188 19.953L76.4946 19.3655C76.6662 18.6449 77.0015 18.0183 77.5005 17.4856C78.0152 16.9373 78.639 16.5144 79.372 16.2167C80.1049 15.9191 80.9003 15.7702 81.758 15.7702C82.5534 15.7702 83.2786 15.8956 83.9336 16.1462C84.5886 16.3969 85.15 16.7572 85.6179 17.2272C86.1013 17.6971 86.4678 18.2533 86.7174 18.8956C86.9825 19.5222 87.115 20.2272 87.115 21.0104V28.53H84.1909L84.0973 27.0731C83.7698 27.6057 83.2942 28.0444 82.6704 28.389C82.0466 28.718 81.3058 28.8825 80.448 28.8825ZM79.2784 24.8407C79.2784 25.2794 79.4577 25.6397 79.8164 25.9217C80.1751 26.2037 80.6508 26.3446 81.2434 26.3446C81.7581 26.3446 82.2181 26.235 82.6236 26.0157C83.0291 25.7963 83.3488 25.4987 83.5827 25.1227C83.8166 24.7311 83.9336 24.3003 83.9336 23.8303V23.7128C83.5905 23.5718 83.224 23.4621 82.8341 23.3838C82.4442 23.2898 82.0544 23.2428 81.6645 23.2428C80.9315 23.2428 80.3467 23.3916 79.91 23.6893C79.4889 23.9713 79.2784 24.3551 79.2784 24.8407Z" fill="#002248"/>
<path d="M89.725 28.53V11H93V28.53H89.725Z" fill="#002248"/>
<circle cx="102" cy="25" r="4" fill="#00B3A0"/>
</g>
<defs>
<clipPath id="clip0_0_1">
<rect width="1440" height="6933" fill="white" transform="translate(-135 -6759)"/>
</clipPath>
</defs>
</svg>
